<mxfile host="app.diagrams.net" modified="2023-06-15T20:36:01.816Z" agent="Mozilla/5.0 (Windows NT 10.0; Win64; x64) AppleWebKit/537.36 (KHTML, like Gecko) Chrome/114.0.0.0 Safari/537.36" etag="d5z90Mkor-sXWvsBpJnh" version="21.4.0" type="device">
  <diagram name="Page-1" id="2aj1BR4aIyKoz6JmXWNO">
    <mxGraphModel dx="784" dy="445" grid="1" gridSize="10" guides="1" tooltips="1" connect="1" arrows="1" fold="1" page="1" pageScale="1" pageWidth="850" pageHeight="1100" math="0" shadow="0">
      <root>
        <mxCell id="0" />
        <mxCell id="1" parent="0" />
        <mxCell id="crOU4X79sxIQ-gBTlm9U-1" value="App" style="html=1;dropTarget=0;verticalAlign=top;" parent="1" vertex="1">
          <mxGeometry x="80" y="120" width="600" height="640" as="geometry" />
        </mxCell>
        <mxCell id="crOU4X79sxIQ-gBTlm9U-2" value="" style="shape=module;jettyWidth=8;jettyHeight=4;" parent="crOU4X79sxIQ-gBTlm9U-1" vertex="1">
          <mxGeometry x="1" width="20" height="20" relative="1" as="geometry">
            <mxPoint x="-27" y="7" as="offset" />
          </mxGeometry>
        </mxCell>
        <mxCell id="crOU4X79sxIQ-gBTlm9U-24" style="rounded=0;orthogonalLoop=1;jettySize=auto;html=1;" parent="1" source="crOU4X79sxIQ-gBTlm9U-12" target="crOU4X79sxIQ-gBTlm9U-22" edge="1">
          <mxGeometry relative="1" as="geometry" />
        </mxCell>
        <mxCell id="crOU4X79sxIQ-gBTlm9U-43" value="Use" style="edgeLabel;html=1;align=center;verticalAlign=middle;resizable=0;points=[];" parent="crOU4X79sxIQ-gBTlm9U-24" vertex="1" connectable="0">
          <mxGeometry x="0.2714" y="1" relative="1" as="geometry">
            <mxPoint x="8" y="10" as="offset" />
          </mxGeometry>
        </mxCell>
        <mxCell id="crOU4X79sxIQ-gBTlm9U-12" value="LanternaView" style="html=1;dropTarget=0;verticalAlign=middle;" parent="1" vertex="1">
          <mxGeometry x="160" y="550" width="120" height="160" as="geometry" />
        </mxCell>
        <mxCell id="crOU4X79sxIQ-gBTlm9U-13" value="" style="shape=module;jettyWidth=8;jettyHeight=4;" parent="crOU4X79sxIQ-gBTlm9U-12" vertex="1">
          <mxGeometry x="1" width="20" height="20" relative="1" as="geometry">
            <mxPoint x="-27" y="7" as="offset" />
          </mxGeometry>
        </mxCell>
        <mxCell id="crOU4X79sxIQ-gBTlm9U-25" style="edgeStyle=none;rounded=0;orthogonalLoop=1;jettySize=auto;html=1;" parent="1" source="crOU4X79sxIQ-gBTlm9U-14" target="crOU4X79sxIQ-gBTlm9U-22" edge="1">
          <mxGeometry relative="1" as="geometry" />
        </mxCell>
        <mxCell id="crOU4X79sxIQ-gBTlm9U-42" value="Use" style="edgeLabel;html=1;align=center;verticalAlign=middle;resizable=0;points=[];" parent="crOU4X79sxIQ-gBTlm9U-25" vertex="1" connectable="0">
          <mxGeometry x="-0.3871" y="-1" relative="1" as="geometry">
            <mxPoint x="-28" y="38" as="offset" />
          </mxGeometry>
        </mxCell>
        <mxCell id="4tyWw5P8eOrRUGWVpR9p-17" style="edgeStyle=orthogonalEdgeStyle;rounded=0;orthogonalLoop=1;jettySize=auto;html=1;" edge="1" parent="1" source="crOU4X79sxIQ-gBTlm9U-14" target="crOU4X79sxIQ-gBTlm9U-3">
          <mxGeometry relative="1" as="geometry">
            <Array as="points">
              <mxPoint x="540" y="520" />
              <mxPoint x="540" y="520" />
            </Array>
          </mxGeometry>
        </mxCell>
        <mxCell id="4tyWw5P8eOrRUGWVpR9p-19" value="Update" style="edgeLabel;html=1;align=center;verticalAlign=middle;resizable=0;points=[];" vertex="1" connectable="0" parent="4tyWw5P8eOrRUGWVpR9p-17">
          <mxGeometry x="-0.2595" relative="1" as="geometry">
            <mxPoint as="offset" />
          </mxGeometry>
        </mxCell>
        <mxCell id="crOU4X79sxIQ-gBTlm9U-14" value="Controller" style="html=1;dropTarget=0;" parent="1" vertex="1">
          <mxGeometry x="480" y="550" width="120" height="160" as="geometry" />
        </mxCell>
        <mxCell id="crOU4X79sxIQ-gBTlm9U-15" value="" style="shape=module;jettyWidth=8;jettyHeight=4;" parent="crOU4X79sxIQ-gBTlm9U-14" vertex="1">
          <mxGeometry x="1" width="20" height="20" relative="1" as="geometry">
            <mxPoint x="-27" y="7" as="offset" />
          </mxGeometry>
        </mxCell>
        <mxCell id="crOU4X79sxIQ-gBTlm9U-22" value="«&lt;i&gt;library&lt;/i&gt;»&lt;br&gt;&lt;b&gt;Lanterna&lt;/b&gt;" style="html=1;dropTarget=0;" parent="1" vertex="1">
          <mxGeometry x="290" y="790" width="180" height="90" as="geometry" />
        </mxCell>
        <mxCell id="crOU4X79sxIQ-gBTlm9U-23" value="" style="shape=module;jettyWidth=8;jettyHeight=4;" parent="crOU4X79sxIQ-gBTlm9U-22" vertex="1">
          <mxGeometry x="1" width="20" height="20" relative="1" as="geometry">
            <mxPoint x="-27" y="7" as="offset" />
          </mxGeometry>
        </mxCell>
        <mxCell id="4tyWw5P8eOrRUGWVpR9p-18" style="edgeStyle=orthogonalEdgeStyle;rounded=0;orthogonalLoop=1;jettySize=auto;html=1;" edge="1" parent="1" source="crOU4X79sxIQ-gBTlm9U-3" target="crOU4X79sxIQ-gBTlm9U-12">
          <mxGeometry relative="1" as="geometry">
            <Array as="points">
              <mxPoint x="220" y="520" />
              <mxPoint x="220" y="520" />
            </Array>
          </mxGeometry>
        </mxCell>
        <mxCell id="4tyWw5P8eOrRUGWVpR9p-20" value="Update" style="edgeLabel;html=1;align=center;verticalAlign=middle;resizable=0;points=[];" vertex="1" connectable="0" parent="4tyWw5P8eOrRUGWVpR9p-18">
          <mxGeometry x="0.4167" y="1" relative="1" as="geometry">
            <mxPoint x="-1" y="-9" as="offset" />
          </mxGeometry>
        </mxCell>
        <mxCell id="crOU4X79sxIQ-gBTlm9U-3" value="Model" style="html=1;dropTarget=0;verticalAlign=top;" parent="1" vertex="1">
          <mxGeometry x="120" y="160" width="520" height="350" as="geometry" />
        </mxCell>
        <mxCell id="crOU4X79sxIQ-gBTlm9U-4" value="" style="shape=module;jettyWidth=8;jettyHeight=4;" parent="crOU4X79sxIQ-gBTlm9U-3" vertex="1">
          <mxGeometry x="1" width="20" height="20" relative="1" as="geometry">
            <mxPoint x="-27" y="7" as="offset" />
          </mxGeometry>
        </mxCell>
        <mxCell id="4tyWw5P8eOrRUGWVpR9p-13" value="" style="edgeStyle=orthogonalEdgeStyle;rounded=0;orthogonalLoop=1;jettySize=auto;html=1;" edge="1" parent="1" source="crOU4X79sxIQ-gBTlm9U-5" target="crOU4X79sxIQ-gBTlm9U-10">
          <mxGeometry relative="1" as="geometry">
            <Array as="points">
              <mxPoint x="220" y="400" />
              <mxPoint x="220" y="400" />
            </Array>
          </mxGeometry>
        </mxCell>
        <mxCell id="4tyWw5P8eOrRUGWVpR9p-14" value="Updates" style="edgeLabel;html=1;align=center;verticalAlign=middle;resizable=0;points=[];" vertex="1" connectable="0" parent="4tyWw5P8eOrRUGWVpR9p-13">
          <mxGeometry x="-0.22" y="1" relative="1" as="geometry">
            <mxPoint as="offset" />
          </mxGeometry>
        </mxCell>
        <mxCell id="crOU4X79sxIQ-gBTlm9U-5" value="InventoryLogic" style="html=1;dropTarget=0;verticalAlign=middle;" parent="1" vertex="1">
          <mxGeometry x="160" y="310" width="120" height="160" as="geometry" />
        </mxCell>
        <mxCell id="crOU4X79sxIQ-gBTlm9U-6" value="" style="shape=module;jettyWidth=8;jettyHeight=4;" parent="crOU4X79sxIQ-gBTlm9U-5" vertex="1">
          <mxGeometry x="1" width="20" height="20" relative="1" as="geometry">
            <mxPoint x="-27" y="7" as="offset" />
          </mxGeometry>
        </mxCell>
        <mxCell id="4tyWw5P8eOrRUGWVpR9p-12" style="edgeStyle=orthogonalEdgeStyle;rounded=0;orthogonalLoop=1;jettySize=auto;html=1;" edge="1" parent="1" source="crOU4X79sxIQ-gBTlm9U-7" target="crOU4X79sxIQ-gBTlm9U-10">
          <mxGeometry relative="1" as="geometry">
            <Array as="points">
              <mxPoint x="540" y="390" />
              <mxPoint x="540" y="390" />
            </Array>
          </mxGeometry>
        </mxCell>
        <mxCell id="4tyWw5P8eOrRUGWVpR9p-16" value="Updates" style="edgeLabel;html=1;align=center;verticalAlign=middle;resizable=0;points=[];" vertex="1" connectable="0" parent="4tyWw5P8eOrRUGWVpR9p-12">
          <mxGeometry x="-0.22" relative="1" as="geometry">
            <mxPoint as="offset" />
          </mxGeometry>
        </mxCell>
        <mxCell id="crOU4X79sxIQ-gBTlm9U-7" value="GameLogic" style="html=1;dropTarget=0;verticalAlign=middle;" parent="1" vertex="1">
          <mxGeometry x="480" y="310" width="120" height="160" as="geometry" />
        </mxCell>
        <mxCell id="crOU4X79sxIQ-gBTlm9U-8" value="" style="shape=module;jettyWidth=8;jettyHeight=4;" parent="crOU4X79sxIQ-gBTlm9U-7" vertex="1">
          <mxGeometry x="1" width="20" height="20" relative="1" as="geometry">
            <mxPoint x="-27" y="7" as="offset" />
          </mxGeometry>
        </mxCell>
        <mxCell id="crOU4X79sxIQ-gBTlm9U-10" value="«&lt;i style=&quot;border-color: var(--border-color);&quot;&gt;Blackboard&lt;/i&gt;»&lt;br style=&quot;border-color: var(--border-color);&quot;&gt;State" style="html=1;dropTarget=0;" parent="1" vertex="1">
          <mxGeometry x="160" y="200" width="440" height="70" as="geometry" />
        </mxCell>
        <mxCell id="crOU4X79sxIQ-gBTlm9U-11" value="" style="shape=module;jettyWidth=8;jettyHeight=4;" parent="crOU4X79sxIQ-gBTlm9U-10" vertex="1">
          <mxGeometry x="1" width="20" height="20" relative="1" as="geometry">
            <mxPoint x="-27" y="7" as="offset" />
          </mxGeometry>
        </mxCell>
        <mxCell id="4tyWw5P8eOrRUGWVpR9p-5" value="" style="edgeStyle=orthogonalEdgeStyle;rounded=0;orthogonalLoop=1;jettySize=auto;html=1;" edge="1" parent="1" source="4tyWw5P8eOrRUGWVpR9p-1" target="crOU4X79sxIQ-gBTlm9U-10">
          <mxGeometry relative="1" as="geometry" />
        </mxCell>
        <mxCell id="4tyWw5P8eOrRUGWVpR9p-15" value="Updates" style="edgeLabel;html=1;align=center;verticalAlign=middle;resizable=0;points=[];" vertex="1" connectable="0" parent="4tyWw5P8eOrRUGWVpR9p-5">
          <mxGeometry x="-0.2" y="-1" relative="1" as="geometry">
            <mxPoint as="offset" />
          </mxGeometry>
        </mxCell>
        <mxCell id="4tyWw5P8eOrRUGWVpR9p-1" value="LevelLogic" style="html=1;dropTarget=0;verticalAlign=middle;" vertex="1" parent="1">
          <mxGeometry x="320" y="310" width="120" height="160" as="geometry" />
        </mxCell>
        <mxCell id="4tyWw5P8eOrRUGWVpR9p-2" value="" style="shape=module;jettyWidth=8;jettyHeight=4;" vertex="1" parent="4tyWw5P8eOrRUGWVpR9p-1">
          <mxGeometry x="1" width="20" height="20" relative="1" as="geometry">
            <mxPoint x="-27" y="7" as="offset" />
          </mxGeometry>
        </mxCell>
      </root>
    </mxGraphModel>
  </diagram>
</mxfile>
